<svg width="101" height="100" viewBox="0 0 101 100" fill="none" xmlns="http://www.w3.org/2000/svg">
<g clip-path="url(#clip0_9_85)">
<path d="M95.5 5H5.5V95H95.5V5Z" fill="#E8CF00"/>
<path d="M65.9571 75.3129C67.77 78.2729 70.1286 80.4486 74.3 80.4486C77.8043 80.4486 80.0429 78.6971 80.0429 76.2771C80.0429 73.3771 77.7429 72.35 73.8857 70.6629L71.7714 69.7557C65.6686 67.1557 61.6143 63.8986 61.6143 57.0129C61.6143 50.67 66.4471 45.8414 74 45.8414C79.3771 45.8414 83.2429 47.7129 86.0286 52.6129L79.4429 56.8414C77.9929 54.2414 76.4286 53.2171 74 53.2171C71.5229 53.2171 69.9529 54.7886 69.9529 56.8414C69.9529 59.3786 71.5243 60.4057 75.1529 61.9771L77.2671 62.8829C84.4529 65.9643 88.51 69.1057 88.51 76.1686C88.51 83.7829 82.5286 87.9543 74.4957 87.9543C66.6414 87.9543 61.5671 84.2114 59.0843 79.3057L65.9571 75.3129ZM36.0814 76.0457C37.41 78.4029 38.6186 80.3957 41.5243 80.3957C44.3029 80.3957 46.0557 79.3086 46.0557 75.0814V46.3243H54.5129V75.1957C54.5129 83.9529 49.3786 87.9386 41.8843 87.9386C35.1129 87.9386 31.1914 84.4343 29.1971 80.2136L36.0814 76.0457Z" fill="#FCFCFC"/>
</g>
<defs>
<clipPath id="clip0_9_85">
<rect width="90" height="90" fill="white" transform="translate(5.5 5)"/>
</clipPath>
</defs>
</svg>
