<svg width="101" height="100" viewBox="0 0 101 100" fill="none" xmlns="http://www.w3.org/2000/svg">
<g clip-path="url(#clip0_9_90)">
<path d="M49.9836 77.1205C49.6866 77.1205 49.3916 77.0425 49.1312 76.8926L46.4178 75.2862C46.0125 75.0595 46.2102 74.9794 46.3439 74.9332C46.8843 74.744 46.9939 74.7012 47.5707 74.3737C47.6313 74.3391 47.7107 74.3513 47.7727 74.3879L49.8573 75.6249C49.9326 75.6656 50.0394 75.6656 50.1091 75.6249L58.2369 70.9334C58.3122 70.8906 58.361 70.8032 58.361 70.7136V61.3346C58.361 61.2411 58.3122 61.1576 58.2353 61.1108L50.1108 56.4234C50.0355 56.3786 49.9358 56.3786 49.8605 56.4234L41.7376 61.1108C41.6589 61.1556 41.6088 61.2431 41.6088 61.3326V70.7116C41.6088 70.8011 41.6577 70.8866 41.735 70.9293L43.9607 72.2151C45.1692 72.8193 45.9077 72.1073 45.9077 71.3911V62.1342C45.9077 62.002 46.0115 61.9002 46.1437 61.9002H47.1732C47.3013 61.9002 47.4071 62.002 47.4071 62.1342V71.3952C47.4071 73.0065 46.5282 73.9322 45.0003 73.9322C44.5304 73.9322 44.1601 73.9322 43.1266 73.4236L40.9944 72.1948C40.4675 71.8896 40.142 71.3199 40.142 70.7116V61.3326C40.142 60.7223 40.4675 60.1526 40.9944 59.8515L49.1304 55.1579C49.6451 54.867 50.3287 54.867 50.8393 55.1579L58.9651 59.8535C59.49 60.1567 59.8175 60.7243 59.8175 61.3346V70.7136C59.8175 71.322 59.49 71.8896 58.9651 72.1948L50.8393 76.8883C50.5789 77.0389 50.2839 77.1162 49.9828 77.1162" fill="#689F63"/>
<path d="M52.4942 70.6577C48.9379 70.6577 48.1923 69.0252 48.1923 67.656C48.1923 67.5258 48.2972 67.4221 48.4277 67.4221H49.4774C49.5934 67.4221 49.6911 67.5065 49.7094 67.621C49.8681 68.6908 50.3401 69.2303 52.4905 69.2303C54.2036 69.2303 54.9319 68.8434 54.9319 67.9349C54.9319 67.4121 54.7244 67.0235 52.0633 66.7631C49.8376 66.5434 48.4622 66.053 48.4622 64.2729C48.4622 62.6331 49.8457 61.6565 52.163 61.6565C54.7651 61.6565 56.055 62.5598 56.2177 64.5007C56.2238 64.5679 56.1994 64.633 56.1546 64.6818C56.1099 64.7286 56.0468 64.7571 55.9817 64.7571H54.9258C54.816 64.7571 54.7203 64.6798 54.698 64.574C54.4436 63.4489 53.8292 63.0888 52.1589 63.0888C50.2892 63.0888 50.0715 63.7398 50.0715 64.2281C50.0715 64.8201 50.3279 64.9931 52.8506 65.3267C55.349 65.6584 56.5351 66.1263 56.5351 67.8821C56.5351 69.6521 55.0581 70.6673 52.4824 70.6673M62.3822 60.7206H62.6548C62.8786 60.7206 62.9214 60.564 62.9214 60.4724C62.9214 60.2324 62.7566 60.2324 62.665 60.2324H62.3843L62.3822 60.7206ZM62.0506 59.9516H62.6548C62.8624 59.9516 63.2693 59.9516 63.2693 60.4155C63.2693 60.739 63.0617 60.8061 62.9376 60.8468C63.1797 60.8631 63.196 61.0217 63.2286 61.2455C63.2448 61.3859 63.2713 61.628 63.3201 61.7094H62.9478C62.9376 61.628 62.8807 61.1804 62.8807 61.156C62.8563 61.0563 62.8217 61.0075 62.6976 61.0075H62.3904V61.7114H62.0506V59.9516ZM61.3243 60.8264C61.3243 61.5548 61.9123 62.1448 62.6345 62.1448C63.3629 62.1448 63.9508 61.5426 63.9508 60.8264C63.9508 60.0961 63.3547 59.5162 62.6325 59.5162C61.9204 59.5162 61.3223 60.0879 61.3223 60.8244M64.2031 60.8305C64.2031 61.6931 63.4971 62.3971 62.6365 62.3971C61.782 62.3971 61.07 61.7013 61.07 60.8305C61.07 59.9435 61.7983 59.2639 62.6365 59.2639C63.4808 59.2639 64.2011 59.9455 64.2011 60.8305" fill="#689F63"/>
<path fill-rule="evenodd" clip-rule="evenodd" d="M24.8148 40.4223C24.8148 40.0479 24.6175 39.7041 24.2944 39.5179L15.6771 34.5599C15.5316 34.4744 15.3687 34.4297 15.2035 34.4236H15.1144C14.9492 34.4297 14.7862 34.4744 14.6383 34.5599L6.02142 39.5179C5.70038 39.7051 5.50018 40.0489 5.50018 40.4233L5.5191 53.7777C5.5191 53.9628 5.61472 54.1358 5.77748 54.2273C5.93617 54.325 6.13555 54.325 6.29424 54.2273L11.4171 51.2936C11.7406 51.1011 11.9379 50.7609 11.9379 50.3903V44.1515C11.9379 43.7792 12.1353 43.4354 12.4577 43.2502L14.6387 41.9941C14.8007 41.9005 14.9785 41.8541 15.1595 41.8541C15.3378 41.8541 15.5196 41.9001 15.6771 41.9939L17.8571 43.2496C18.1797 43.4347 18.3779 43.7786 18.3779 44.1509V50.3892C18.3779 50.7595 18.5779 51.1013 18.8997 51.2926L24.0193 54.2243C24.1801 54.3199 24.3801 54.3199 24.5402 54.2243C24.698 54.1327 24.7981 53.9598 24.7981 53.7746L24.8148 40.4223ZM65.4778 47.3753C65.4778 47.4683 65.4284 47.5544 65.3476 47.6004L62.3878 49.3065C62.3074 49.3527 62.2082 49.3527 62.128 49.3065L59.1678 47.6004C59.0864 47.5542 59.0376 47.4681 59.0376 47.3753V43.9582C59.0376 43.865 59.0864 43.7792 59.1658 43.7324L62.1239 42.0234C62.2053 41.9766 62.305 41.9766 62.3864 42.0234L65.3466 43.7324C65.4279 43.7792 65.4768 43.865 65.4768 43.9582L65.4778 47.3753ZM66.2773 22.0659C66.1158 21.9759 65.9193 21.9784 65.7598 22.0714C65.6011 22.165 65.503 22.3359 65.503 22.521V35.7452C65.503 35.8754 65.4338 35.9954 65.3211 36.0605C65.2092 36.1256 65.0699 36.1256 64.957 36.0605L62.7984 34.8172C62.4769 34.6313 62.081 34.6313 61.7583 34.8172L53.1382 39.7922C52.8161 39.9773 52.6174 40.3212 52.6174 40.6914V50.6442C52.6174 51.0165 52.8161 51.3583 53.1382 51.5454L61.7583 56.5238C62.0802 56.709 62.4765 56.709 62.7994 56.5238L71.4195 51.5434C71.741 51.3562 71.9404 51.0144 71.9404 50.6421V25.8376C71.9404 25.46 71.7349 25.1127 71.4053 24.9282L66.2773 22.0659ZM94.9826 43.8683C95.3028 43.6823 95.5 43.3389 95.5 42.9686V40.5565C95.5 40.1855 95.3026 39.8431 94.9818 39.6563L86.4166 34.684C86.0931 34.4968 85.6964 34.4968 85.3729 34.684L76.7548 39.6583C76.4313 39.8455 76.2339 40.1873 76.2339 40.5596V50.5083C76.2339 50.8826 76.4354 51.2285 76.7588 51.4136L85.322 56.2944C85.6374 56.4754 86.0239 56.4775 86.3433 56.3005L91.5231 53.4217C91.6859 53.3301 91.7897 53.1572 91.7897 52.97C91.7897 52.7828 91.69 52.6079 91.5272 52.5163L82.8562 47.5399C82.6935 47.4484 82.5938 47.2755 82.5938 47.0903V43.9694C82.5938 43.783 82.6914 43.6113 82.8542 43.5186L85.5519 41.9622C85.7126 41.8686 85.91 41.8686 86.0707 41.9622L88.7705 43.5186C88.9312 43.6101 89.0309 43.783 89.0309 43.9682V46.4218C89.0309 46.6069 89.1306 46.7799 89.2913 46.8734C89.452 46.965 89.6514 46.965 89.8121 46.8714L94.9826 43.8683Z" fill="#152131"/>
<path fill-rule="evenodd" clip-rule="evenodd" d="M85.7685 43.4028C85.8296 43.3668 85.9061 43.3668 85.9679 43.4028L87.622 44.357C87.6838 44.3928 87.7217 44.4587 87.7217 44.5299V46.4403C87.7217 46.5115 87.6838 46.5775 87.622 46.6133L85.9679 47.5674C85.9061 47.6034 85.8296 47.6034 85.7685 47.5674L84.1155 46.6133C84.0524 46.5775 84.0138 46.5115 84.0138 46.4403V44.5299C84.0138 44.4587 84.0504 44.3928 84.1135 44.357L85.7685 43.4028Z" fill="#689F63"/>
<mask id="mask0_9_90" style="mask-type:luminance" maskUnits="userSpaceOnUse" x="29" y="34" width="20" height="23">
<path d="M38.1993 34.7337L29.628 39.681C29.3069 39.8661 29.11 40.2079 29.11 40.5774V50.4788C29.11 50.8485 29.3069 51.1901 29.628 51.3752L38.1999 56.3263C38.5203 56.5109 38.9154 56.5109 39.2354 56.3263L47.8059 51.3752C48.1254 51.1901 48.3227 50.8483 48.3227 50.4788V40.5774C48.3227 40.2079 48.1254 39.8661 47.8039 39.681L39.2346 34.7337C39.0739 34.6415 38.8949 34.5953 38.7158 34.5953C38.5368 34.5953 38.3578 34.6415 38.197 34.7337" fill="white"/>
</mask>
<g mask="url(#mask0_9_90)">
<path d="M56.9843 38.8409L32.8319 27.0022L20.4479 52.2653L44.5998 64.1046L56.9843 38.8409Z" fill="url(#paint0_linear_9_90)"/>
</g>
<mask id="mask1_9_90" style="mask-type:luminance" maskUnits="userSpaceOnUse" x="29" y="34" width="20" height="23">
<path d="M29.3224 51.1075C29.4044 51.2139 29.5069 51.306 29.6276 51.3752L36.9802 55.6222L38.205 56.3261C38.3881 56.4319 38.5968 56.4767 38.8019 56.4614C38.8703 56.4559 38.9386 56.4431 39.0053 56.4242L48.0454 39.8716C47.9762 39.7963 47.8953 39.7332 47.8045 39.6803L42.1922 36.4394L39.2255 34.7325C39.1412 34.6836 39.0499 34.649 38.9569 34.6246L29.3224 51.1075Z" fill="white"/>
</mask>
<g mask="url(#mask1_9_90)">
<path d="M18.8798 42.3425L35.9339 65.4244L58.4883 48.7607L41.4331 25.6794L18.8798 42.3425Z" fill="url(#paint1_linear_9_90)"/>
</g>
<mask id="mask2_9_90" style="mask-type:luminance" maskUnits="userSpaceOnUse" x="29" y="34" width="20" height="23">
<path d="M38.6135 34.601C38.4697 34.6153 38.3291 34.66 38.1995 34.7337L29.6526 39.6667L38.8688 56.4533C38.997 56.435 39.1231 56.3923 39.2371 56.3263L47.8084 51.3752C48.0729 51.2218 48.2539 50.9622 48.3089 50.668L38.9136 34.6179C38.8444 34.6043 38.7752 34.5972 38.704 34.5972C38.6756 34.5972 38.6471 34.5986 38.6186 34.6012" fill="white"/>
</mask>
<g mask="url(#mask2_9_90)">
<path d="M29.6523 34.5972V56.4537H48.3051V34.5972H29.6523Z" fill="url(#paint2_linear_9_90)"/>
</g>
</g>
<defs>
<linearGradient id="paint0_linear_9_90" x1="44.9009" y1="32.9029" x2="32.5178" y2="58.1643" gradientUnits="userSpaceOnUse">
<stop offset="0.3" stop-color="#3E863D"/>
<stop offset="0.5" stop-color="#55934F"/>
<stop offset="0.8" stop-color="#5AAD45"/>
</linearGradient>
<linearGradient id="paint1_linear_9_90" x1="27.509" y1="54.0157" x2="50.0643" y2="37.3501" gradientUnits="userSpaceOnUse">
<stop offset="0.57" stop-color="#3E863D"/>
<stop offset="0.72" stop-color="#619857"/>
<stop offset="1" stop-color="#76AC64"/>
</linearGradient>
<linearGradient id="paint2_linear_9_90" x1="29.6586" y1="45.526" x2="48.3086" y2="45.526" gradientUnits="userSpaceOnUse">
<stop offset="0.16" stop-color="#6BBF47"/>
<stop offset="0.38" stop-color="#79B461"/>
<stop offset="0.47" stop-color="#75AC64"/>
<stop offset="0.7" stop-color="#659E5A"/>
<stop offset="0.9" stop-color="#3E863D"/>
</linearGradient>
<clipPath id="clip0_9_90">
<rect width="90" height="55.1203" fill="white" transform="translate(5.5 22)"/>
</clipPath>
</defs>
</svg>
