<svg width="100" height="100" viewBox="0 0 100 100" fill="none" xmlns="http://www.w3.org/2000/svg">
<path d="M48.9784 5.00074C45.3078 5.01779 41.8026 5.33084 38.7183 5.8766C29.6323 7.48179 27.9827 10.8416 27.9827 17.0376V25.2207H49.4539V27.9484H27.9827H19.9247C13.6846 27.9484 8.2206 31.699 6.51152 38.8341C4.54012 47.0125 4.45268 52.116 6.51152 60.6556C8.03777 67.0122 11.6827 71.5414 17.9228 71.5414H25.305V61.7317C25.305 54.6448 31.4368 48.3935 38.7183 48.3935H60.1644C66.1343 48.3935 70.9 43.4781 70.9 37.4828V17.0376C70.9 11.2188 65.9912 6.84774 60.1644 5.8766C56.476 5.26261 52.6489 4.98368 48.9784 5.00074ZM37.3669 11.5822C39.5848 11.5822 41.3959 13.423 41.3959 15.6863C41.3959 17.9416 39.5848 19.7653 37.3669 19.7653C35.1412 19.7653 33.338 17.9416 33.338 15.6863C33.338 13.423 35.1412 11.5822 37.3669 11.5822Z" fill="url(#paint0_linear_9_95)"/>
<path d="M73.5777 27.9484V37.4828C73.5777 44.8747 67.3108 51.0963 60.1644 51.0963H38.7183C32.8438 51.0963 27.9827 56.124 27.9827 62.007V82.4522C27.9827 88.271 33.0426 91.6935 38.7183 93.3629C45.5149 95.3614 52.0324 95.7226 60.1644 93.3629C65.5699 91.7979 70.9 88.6482 70.9 82.4522V74.2691H49.4539V71.5414H70.9H81.6356C87.8757 71.5414 90.201 67.1888 92.3712 60.6557C94.6129 53.9299 94.5175 47.462 92.3712 38.8342C90.829 32.6221 87.8837 27.9484 81.6356 27.9484H73.5777ZM61.5158 79.7245C63.7415 79.7245 65.5447 81.5482 65.5447 83.8035C65.5447 86.0668 63.7415 87.9076 61.5158 87.9076C59.2979 87.9076 57.4868 86.0668 57.4868 83.8035C57.4868 81.5482 59.2979 79.7245 61.5158 79.7245Z" fill="url(#paint1_linear_9_95)"/>
<defs>
<linearGradient id="paint0_linear_9_95" x1="5" y1="5" x2="54.5102" y2="47.1895" gradientUnits="userSpaceOnUse">
<stop stop-color="#5A9FD4"/>
<stop offset="1" stop-color="#306998"/>
</linearGradient>
<linearGradient id="paint1_linear_9_95" x1="60.9998" y1="83.1155" x2="43.2374" y2="58.2251" gradientUnits="userSpaceOnUse">
<stop stop-color="#FFD43B"/>
<stop offset="1" stop-color="#FFE873"/>
</linearGradient>
</defs>
</svg>
