<svg width="101" height="100" viewBox="0 0 101 100" fill="none" xmlns="http://www.w3.org/2000/svg">
<g clip-path="url(#clip0_9_64)">
<path d="M50.5 58.0143C54.8811 58.0143 58.4326 54.4262 58.4326 50C58.4326 45.5738 54.8811 41.9857 50.5 41.9857C46.1189 41.9857 42.5674 45.5738 42.5674 50C42.5674 54.4262 46.1189 58.0143 50.5 58.0143Z" fill="#4FB5D1"/>
<path d="M50.5 66.4195C74.0081 66.4195 93.0652 59.0682 93.0652 50C93.0652 40.9318 74.0081 33.5805 50.5 33.5805C26.9919 33.5805 7.93475 40.9318 7.93475 50C7.93475 59.0682 26.9919 66.4195 50.5 66.4195Z" stroke="#4FB5D1"/>
<path d="M36.4252 58.2098C48.1793 78.778 64.0093 91.7762 71.7826 87.2421C79.5559 82.708 76.3288 62.3585 64.5748 41.7903C52.8207 21.222 36.9907 8.22382 29.2174 12.7579C21.4441 17.2921 24.6711 37.6415 36.4252 58.2098Z" stroke="#4FB5D1"/>
<path d="M36.4252 41.7903C24.6711 62.3585 21.4441 82.708 29.2173 87.2421C36.9906 91.7762 52.8207 78.778 64.5748 58.2097C76.3288 37.6415 79.5559 17.292 71.7826 12.7579C64.0093 8.22381 48.1792 21.222 36.4252 41.7903Z" stroke="#4FB5D1"/>
</g>
<defs>
<clipPath id="clip0_9_64">
<rect width="89" height="80" fill="white" transform="translate(6 10)"/>
</clipPath>
</defs>
</svg>
