<svg width="101" height="100" viewBox="0 0 101 100" fill="none" xmlns="http://www.w3.org/2000/svg">
<g opacity="0.8">
<path d="M90.5 5L83.2118 86.6464L50.451 95.7287L17.7805 86.6592L10.5 5H90.5Z" fill="#264DE4"/>
<path d="M76.9723 81.4475L83.2005 11.6769H50.5V88.7866L76.9723 81.4475Z" fill="#2965F1"/>
<path d="M27.1904 41.9631L28.088 51.9781H50.5V41.9631H27.1904Z" fill="#EBEBEB"/>
<path d="M50.5 21.6921H50.4654H25.3867L26.2971 31.7074H50.5V21.6921Z" fill="#EBEBEB"/>
<path d="M50.5 78.3935V67.9735L50.4561 67.9852L39.3022 64.9734L38.5891 56.9859H33.1692H28.5355L29.9386 72.7111L50.4539 78.4063L50.5 78.3935Z" fill="#EBEBEB"/>
<path d="M62.7979 51.9781L61.6354 64.967L50.4654 67.9819V78.4015L70.997 72.7111L71.1476 71.0191L73.5011 44.6524L73.7455 41.9631L75.5535 21.6921H50.4654V31.7074H64.5778L63.6665 41.9631H50.4654V51.9781H62.7979Z" fill="#FCFCFC"/>
</g>
</svg>
