<svg width="100" height="100" viewBox="0 0 100 100" fill="none" xmlns="http://www.w3.org/2000/svg">
<g clip-path="url(#clip0_9_105)">
<path d="M35.006 95C43.286 95 50.006 88.28 50.006 80V65H35.006C26.726 65 20.006 71.72 20.006 80C20.006 88.28 26.726 95 35.006 95Z" fill="#0ACF83"/>
<path d="M20.006 50C20.006 41.72 26.726 35 35.006 35H50.006V65H35.006C26.726 65 20.006 58.28 20.006 50Z" fill="#A259FF"/>
<path d="M20.006 20C20.006 11.72 26.726 5 35.006 5H50.006V35H35.006C26.726 35 20.006 28.28 20.006 20Z" fill="#F24E1E"/>
<path d="M50.006 5H65.006C73.286 5 80.006 11.72 80.006 20C80.006 28.28 73.286 35 65.006 35H50.006V5Z" fill="#FF7262"/>
<path d="M80.006 50C80.006 58.28 73.286 65 65.006 65C56.726 65 50.006 58.28 50.006 50C50.006 41.72 56.726 35 65.006 35C73.286 35 80.006 41.72 80.006 50Z" fill="#1ABCFE"/>
</g>
<defs>
<clipPath id="clip0_9_105">
<rect width="60.012" height="90" fill="white" transform="translate(20 5)"/>
</clipPath>
</defs>
</svg>
