<svg width="100" height="100" viewBox="0 0 100 100" fill="none" xmlns="http://www.w3.org/2000/svg">
<path d="M41.375 9.65858C29.9375 12.1716 20.5625 18.4173 14.1125 27.8781C2.82501 44.5455 5.07501 66.9042 19.475 81.1694C23.7875 85.4564 30.35 89.5955 35.3 91.1847C37.1375 91.776 37.3625 91.776 38.1875 91.2216C39.0875 90.6303 39.125 90.4825 39.125 86.2325V81.8716L35.825 82.0564C31.9625 82.2412 28.9625 81.576 27.1625 80.0607C26.525 79.5434 25.2875 77.7694 24.425 76.1434C23 73.4086 21.95 72.1521 19.025 69.6021C18.05 68.7521 18.0125 68.7151 18.6875 68.2347C20.3 67.0521 23.5625 68.1977 25.625 70.6368C29.225 74.9607 30.6125 76.1064 32.675 76.5499C34.5125 76.9194 36.2 76.7716 38.75 76.0325C39.0875 75.9216 39.5375 75.1455 39.7625 74.2586C39.9875 73.4086 40.5875 72.1151 41.075 71.4129L41.975 70.1194L38.9375 69.5281C32.5625 68.2347 28.625 65.9803 26.0375 62.1368C23.6375 58.589 22.85 55.5216 22.8125 49.7934C22.8125 44.3977 23.4125 42.1803 25.775 39.1499C26.825 37.8194 26.9375 37.4129 26.6375 36.6368C26.075 35.3064 26.225 29.689 26.825 27.989C27.3125 26.7325 27.575 26.5108 28.5875 26.3999C30.275 26.2151 33.425 27.2868 36.6125 29.0608L39.35 30.6129L41.75 30.0586C45.1625 29.2825 55.4 29.3194 58.475 30.0586L60.8 30.6499L62.975 29.3564C65.8625 27.6564 69.5375 26.326 71.375 26.326C72.8375 26.326 72.8375 26.3629 73.4375 28.2477C74.075 30.4281 74.1875 34.3825 73.625 36.2673C73.325 37.376 73.4 37.7086 74.225 38.7803C78.3125 44.1021 78.7625 52.9347 75.3125 60.1781C72.9875 64.9455 68.075 68.2716 61.475 69.4912L58.325 70.0825L59.4875 72.1151L60.6875 74.1847L60.8 82.426L60.95 90.6673L61.8875 91.2586C62.75 91.8129 62.9375 91.8129 64.7375 91.1847C67.7375 90.1868 72.875 87.4521 75.6875 85.3455C92.4125 73.0021 97.8125 50.8651 88.55 32.4608C83.1125 21.6325 72.8375 13.3173 61.0625 10.2129C55.925 8.88249 46.25 8.58684 41.375 9.65858Z" fill="#152131"/>
</svg>
