<svg width="101" height="100" viewBox="0 0 101 100" fill="none" xmlns="http://www.w3.org/2000/svg">
<path d="M41.875 9.6587C30.4375 12.1717 21.0625 18.4174 14.6125 27.8783C3.325 44.5457 5.575 66.9043 19.975 81.1696C24.2875 85.4565 30.85 89.5957 35.8 91.1848C37.6375 91.7761 37.8625 91.7761 38.6875 91.2217C39.5875 90.6304 39.625 90.4826 39.625 86.2326V81.8717L36.325 82.0565C32.4625 82.2413 29.4625 81.5761 27.6625 80.0609C27.025 79.5435 25.7875 77.7696 24.925 76.1435C23.5 73.4087 22.45 72.1522 19.525 69.6022C18.55 68.7522 18.5125 68.7152 19.1875 68.2348C20.8 67.0522 24.0625 68.1978 26.125 70.637C29.725 74.9609 31.1125 76.1065 33.175 76.55C35.0125 76.9196 36.7 76.7717 39.25 76.0326C39.5875 75.9217 40.0375 75.1457 40.2625 74.2587C40.4875 73.4087 41.0875 72.1152 41.575 71.413L42.475 70.1196L39.4375 69.5283C33.0625 68.2348 29.125 65.9804 26.5375 62.137C24.1375 58.5891 23.35 55.5217 23.3125 49.7935C23.3125 44.3978 23.9125 42.1804 26.275 39.15C27.325 37.8196 27.4375 37.413 27.1375 36.637C26.575 35.3065 26.725 29.6891 27.325 27.9891C27.8125 26.7326 28.075 26.5109 29.0875 26.4C30.775 26.2152 33.925 27.287 37.1125 29.0609L39.85 30.613L42.25 30.0587C45.6625 29.2826 55.9 29.3196 58.975 30.0587L61.3 30.65L63.475 29.3565C66.3625 27.6565 70.0375 26.3261 71.875 26.3261C73.3375 26.3261 73.3375 26.363 73.9375 28.2478C74.575 30.4283 74.6875 34.3826 74.125 36.2674C73.825 37.3761 73.9 37.7087 74.725 38.7804C78.8125 44.1022 79.2625 52.9348 75.8125 60.1783C73.4875 64.9457 68.575 68.2717 61.975 69.4913L58.825 70.0826L59.9875 72.1152L61.1875 74.1848L61.3 82.4261L61.45 90.6674L62.3875 91.2587C63.25 91.813 63.4375 91.813 65.2375 91.1848C68.2375 90.187 73.375 87.4522 76.1875 85.3457C92.9125 73.0022 98.3125 50.8652 89.05 32.4609C83.6125 21.6326 73.3375 13.3174 61.5625 10.2131C56.425 8.88261 46.75 8.58696 41.875 9.6587Z" fill="#152131"/>
</svg>
