<svg width="100" height="100" viewBox="0 0 100 100" fill="none" xmlns="http://www.w3.org/2000/svg">
<g clip-path="url(#clip0_13_248)">
<path d="M50.0351 95.0701C74.9072 95.0701 95.0701 74.9072 95.0701 50.0351C95.0701 25.1629 74.9072 5 50.0351 5C25.1629 5 5 25.1629 5 50.0351C5 74.9072 25.1629 95.0701 50.0351 95.0701Z" fill="url(#paint0_linear_13_248)"/>
<path fill-rule="evenodd" clip-rule="evenodd" d="M25.3429 49.544C38.4606 43.7919 47.2292 40.074 51.6485 38.2502C64.1348 33.0592 66.7303 32.1473 68.4139 32.0771C68.7646 32.0771 69.6064 32.1473 70.1676 32.5682C70.5885 32.9189 70.7288 33.41 70.7989 33.7607C70.8691 34.1114 70.9392 34.8831 70.8691 35.5144C70.1676 42.5994 67.2915 59.9259 65.7482 67.8527C65.1169 71.2198 63.8542 72.3421 62.6617 72.4824C60.0663 72.6929 58.032 70.7287 55.5066 69.1153C51.5783 66.5199 49.3336 64.9065 45.4755 62.3811C41.0561 59.4349 43.9322 57.8215 46.4575 55.226C47.0889 54.5245 58.6633 44.0725 58.8737 43.0904C58.8737 42.9501 58.9439 42.5292 58.6633 42.3188C58.3827 42.1083 58.032 42.1785 57.7514 42.2486C57.3305 42.3188 51.0171 46.5277 38.7412 54.8051C36.9174 56.0678 35.304 56.629 33.8309 56.629C32.2175 56.629 29.1309 55.7171 26.8161 54.9454C24.0101 54.0335 21.7654 53.5425 21.9758 51.9992C22.1161 51.2276 23.2385 50.3858 25.3429 49.544Z" fill="#FCFCFC"/>
</g>
<defs>
<linearGradient id="paint0_linear_13_248" x1="5" y1="50.0024" x2="95.005" y2="50.0024" gradientUnits="userSpaceOnUse">
<stop stop-color="#2AABEE"/>
<stop offset="1" stop-color="#229ED9"/>
</linearGradient>
<clipPath id="clip0_13_248">
<rect width="90" height="90" fill="white" transform="translate(5 5)"/>
</clipPath>
</defs>
</svg>
