<svg width="80" height="42" viewBox="0 0 80 42" fill="none" xmlns="http://www.w3.org/2000/svg">
<g clip-path="url(#clip0_8_107)">
<path d="M80 0H0V42H80V0Z" fill="#B22234"/>
<path d="M0 4.84613H80ZM80 11.3077H0ZM0 17.7692H80ZM80 24.2307H0ZM0 30.6923H80ZM80 37.1538H0Z" fill="black"/>
<path d="M0 4.84613H80M80 11.3077H0M0 17.7692H80M80 24.2307H0M0 30.6923H80M80 37.1538H0" stroke="white" stroke-width="3.23887"/>
<path d="M32 0H0V22.6154H32V0Z" fill="#3C3B6E"/>
<path d="M2.66665 0.969238L3.42815 3.30705L1.43451 1.8622H3.89879L1.90514 3.30705L2.66665 0.969238Z" fill="white"/>
<path d="M2.66665 5.49231L3.42815 7.83012L1.43451 6.38527H3.89879L1.90514 7.83012L2.66665 5.49231Z" fill="white"/>
<path d="M2.66665 10.0154L3.42815 12.3532L1.43451 10.9083H3.89879L1.90514 12.3532L2.66665 10.0154Z" fill="white"/>
<path d="M2.66665 14.5385L3.42815 16.8763L1.43451 15.4314H3.89879L1.90514 16.8763L2.66665 14.5385Z" fill="white"/>
<path d="M2.66665 19.0615L3.42815 21.3993L1.43451 19.9545H3.89879L1.90514 21.3993L2.66665 19.0615Z" fill="white"/>
<path d="M5.33333 3.23077L6.09484 5.56858L4.1012 4.12374H6.56547L4.57183 5.56858L5.33333 3.23077Z" fill="white"/>
<path d="M5.33333 7.75385L6.09484 10.0917L4.1012 8.64681H6.56547L4.57183 10.0917L5.33333 7.75385Z" fill="white"/>
<path d="M5.33333 12.2769L6.09484 14.6147L4.1012 13.1699H6.56547L4.57183 14.6147L5.33333 12.2769Z" fill="white"/>
<path d="M5.33333 16.8L6.09484 19.1378L4.1012 17.693H6.56547L4.57183 19.1378L5.33333 16.8Z" fill="white"/>
<path d="M7.99996 0.969238L8.76146 3.30705L6.76782 1.8622H9.2321L7.23846 3.30705L7.99996 0.969238Z" fill="white"/>
<path d="M7.99996 5.49231L8.76146 7.83012L6.76782 6.38527H9.2321L7.23846 7.83012L7.99996 5.49231Z" fill="white"/>
<path d="M7.99996 10.0154L8.76146 12.3532L6.76782 10.9083H9.2321L7.23846 12.3532L7.99996 10.0154Z" fill="white"/>
<path d="M7.99996 14.5385L8.76146 16.8763L6.76782 15.4314H9.2321L7.23846 16.8763L7.99996 14.5385Z" fill="white"/>
<path d="M7.99996 19.0615L8.76146 21.3993L6.76782 19.9545H9.2321L7.23846 21.3993L7.99996 19.0615Z" fill="white"/>
<path d="M10.6666 3.23077L11.4282 5.56858L9.43451 4.12374H11.8988L9.90514 5.56858L10.6666 3.23077Z" fill="white"/>
<path d="M10.6666 7.75385L11.4282 10.0917L9.43451 8.64681H11.8988L9.90514 10.0917L10.6666 7.75385Z" fill="white"/>
<path d="M10.6666 12.2769L11.4282 14.6147L9.43451 13.1699H11.8988L9.90514 14.6147L10.6666 12.2769Z" fill="white"/>
<path d="M10.6666 16.8L11.4282 19.1378L9.43451 17.693H11.8988L9.90514 19.1378L10.6666 16.8Z" fill="white"/>
<path d="M13.3333 0.969238L14.0948 3.30705L12.1012 1.8622H14.5655L12.5718 3.30705L13.3333 0.969238Z" fill="white"/>
<path d="M13.3333 5.49231L14.0948 7.83012L12.1012 6.38527H14.5655L12.5718 7.83012L13.3333 5.49231Z" fill="white"/>
<path d="M13.3333 10.0154L14.0948 12.3532L12.1012 10.9083H14.5655L12.5718 12.3532L13.3333 10.0154Z" fill="white"/>
<path d="M13.3333 14.5385L14.0948 16.8763L12.1012 15.4314H14.5655L12.5718 16.8763L13.3333 14.5385Z" fill="white"/>
<path d="M13.3333 19.0615L14.0948 21.3993L12.1012 19.9545H14.5655L12.5718 21.3993L13.3333 19.0615Z" fill="white"/>
<path d="M16 3.23077L16.7615 5.56858L14.7679 4.12374H17.2322L15.2385 5.56858L16 3.23077Z" fill="white"/>
<path d="M16 7.75385L16.7615 10.0917L14.7679 8.64681H17.2322L15.2385 10.0917L16 7.75385Z" fill="white"/>
<path d="M16 12.2769L16.7615 14.6147L14.7679 13.1699H17.2322L15.2385 14.6147L16 12.2769Z" fill="white"/>
<path d="M16 16.8L16.7615 19.1378L14.7679 17.693H17.2322L15.2385 19.1378L16 16.8Z" fill="white"/>
<path d="M18.6666 0.969238L19.4282 3.30705L17.4345 1.8622H19.8988L17.9051 3.30705L18.6666 0.969238Z" fill="white"/>
<path d="M18.6666 5.49231L19.4282 7.83012L17.4345 6.38527H19.8988L17.9051 7.83012L18.6666 5.49231Z" fill="white"/>
<path d="M18.6666 10.0154L19.4282 12.3532L17.4345 10.9083H19.8988L17.9051 12.3532L18.6666 10.0154Z" fill="white"/>
<path d="M18.6666 14.5385L19.4282 16.8763L17.4345 15.4314H19.8988L17.9051 16.8763L18.6666 14.5385Z" fill="white"/>
<path d="M18.6666 19.0615L19.4282 21.3993L17.4345 19.9545H19.8988L17.9051 21.3993L18.6666 19.0615Z" fill="white"/>
<path d="M21.3333 3.23077L22.0948 5.56858L20.1012 4.12374H22.5655L20.5718 5.56858L21.3333 3.23077Z" fill="white"/>
<path d="M21.3333 7.75385L22.0948 10.0917L20.1012 8.64681H22.5655L20.5718 10.0917L21.3333 7.75385Z" fill="white"/>
<path d="M21.3333 12.2769L22.0948 14.6147L20.1012 13.1699H22.5655L20.5718 14.6147L21.3333 12.2769Z" fill="white"/>
<path d="M21.3333 16.8L22.0948 19.1378L20.1012 17.693H22.5655L20.5718 19.1378L21.3333 16.8Z" fill="white"/>
<path d="M24 0.969238L24.7615 3.30705L22.7678 1.8622H25.2321L23.2385 3.30705L24 0.969238Z" fill="white"/>
<path d="M24 5.49231L24.7615 7.83012L22.7678 6.38527H25.2321L23.2385 7.83012L24 5.49231Z" fill="white"/>
<path d="M24 10.0154L24.7615 12.3532L22.7678 10.9083H25.2321L23.2385 12.3532L24 10.0154Z" fill="white"/>
<path d="M24 14.5385L24.7615 16.8763L22.7678 15.4314H25.2321L23.2385 16.8763L24 14.5385Z" fill="white"/>
<path d="M24 19.0615L24.7615 21.3993L22.7678 19.9545H25.2321L23.2385 21.3993L24 19.0615Z" fill="white"/>
<path d="M26.6666 3.23077L27.4282 5.56858L25.4345 4.12374H27.8988L25.9051 5.56858L26.6666 3.23077Z" fill="white"/>
<path d="M26.6666 7.75385L27.4282 10.0917L25.4345 8.64681H27.8988L25.9051 10.0917L26.6666 7.75385Z" fill="white"/>
<path d="M26.6666 12.2769L27.4282 14.6147L25.4345 13.1699H27.8988L25.9051 14.6147L26.6666 12.2769Z" fill="white"/>
<path d="M26.6666 16.8L27.4282 19.1378L25.4345 17.693H27.8988L25.9051 19.1378L26.6666 16.8Z" fill="white"/>
<path d="M29.3333 0.969238L30.0948 3.30705L28.1012 1.8622H30.5655L28.5718 3.30705L29.3333 0.969238Z" fill="white"/>
<path d="M29.3333 5.49231L30.0948 7.83012L28.1012 6.38527H30.5655L28.5718 7.83012L29.3333 5.49231Z" fill="white"/>
<path d="M29.3333 10.0154L30.0948 12.3532L28.1012 10.9083H30.5655L28.5718 12.3532L29.3333 10.0154Z" fill="white"/>
<path d="M29.3333 14.5385L30.0948 16.8763L28.1012 15.4314H30.5655L28.5718 16.8763L29.3333 14.5385Z" fill="white"/>
<path d="M29.3333 19.0615L30.0948 21.3993L28.1012 19.9545H30.5655L28.5718 21.3993L29.3333 19.0615Z" fill="white"/>
</g>
<defs>
<clipPath id="clip0_8_107">
<rect width="80" height="42" fill="white"/>
</clipPath>
</defs>
</svg>
