<svg width="100" height="100" viewBox="0 0 100 100" fill="none" xmlns="http://www.w3.org/2000/svg">
<g clip-path="url(#clip0_13_238)">
<mask id="mask0_13_238" style="mask-type:luminance" maskUnits="userSpaceOnUse" x="5" y="15" width="90" height="70">
<path d="M95 15H5V84.7183H95V15Z" fill="white"/>
</mask>
<g mask="url(#mask0_13_238)">
<path d="M81.1888 21.2085C75.4525 18.5765 69.3012 16.6373 62.8696 15.5266C62.7525 15.5052 62.6355 15.5588 62.5752 15.6659C61.784 17.073 60.9077 18.9086 60.2941 20.3514C53.3765 19.3157 46.4944 19.3157 39.7187 20.3514C39.1049 18.8765 38.1968 17.073 37.4022 15.6659C37.3418 15.5623 37.2248 15.5088 37.1077 15.5266C30.6797 16.6337 24.5284 18.5729 18.7885 21.2085C18.7388 21.2299 18.6962 21.2657 18.668 21.3121C7.00022 38.7434 3.80394 55.7463 5.37193 72.5384C5.37902 72.6206 5.42514 72.6992 5.48899 72.7491C13.187 78.4024 20.6439 81.8344 27.9623 84.1093C28.0794 84.145 28.2035 84.1022 28.2781 84.0057C30.0092 81.6416 31.5524 79.1489 32.8755 76.5275C32.9536 76.374 32.8791 76.1918 32.7195 76.1311C30.2717 75.2026 27.941 74.0705 25.699 72.7849C25.5216 72.6813 25.5075 72.4276 25.6706 72.3062C26.1424 71.9527 26.6143 71.5848 27.0648 71.2134C27.1463 71.1456 27.2599 71.1313 27.3557 71.1741C42.0848 77.8989 58.0308 77.8989 72.5861 71.1741C72.6819 71.1277 72.7955 71.142 72.8805 71.2099C73.3312 71.5813 73.803 71.9527 74.2783 72.3062C74.4415 72.4276 74.4308 72.6813 74.2535 72.7849C72.0115 74.0954 69.6807 75.2026 67.2294 76.1275C67.0698 76.1883 66.9988 76.374 67.0769 76.5275C68.4285 79.1452 69.9716 81.6379 71.6709 84.0022C71.7418 84.1022 71.8695 84.145 71.9866 84.1093C79.3405 81.8344 86.7973 78.4024 94.4954 72.7491C94.5628 72.6992 94.6054 72.6241 94.6125 72.542C96.4891 53.1285 91.4693 36.265 81.3058 21.3156C81.281 21.2657 81.2385 21.2299 81.1888 21.2085ZM35.0751 62.3138C30.6406 62.3138 26.9867 58.2426 26.9867 53.2428C26.9867 48.243 30.5698 44.1718 35.0751 44.1718C39.6158 44.1718 43.2343 48.2787 43.1633 53.2428C43.1633 58.2426 39.5803 62.3138 35.0751 62.3138ZM64.9803 62.3138C60.546 62.3138 56.8921 58.2426 56.8921 53.2428C56.8921 48.243 60.475 44.1718 64.9803 44.1718C69.5211 44.1718 73.1395 48.2787 73.0687 53.2428C73.0687 58.2426 69.5211 62.3138 64.9803 62.3138Z" fill="#5865F2"/>
</g>
</g>
<defs>
<clipPath id="clip0_13_238">
<rect width="90" height="69.7183" fill="white" transform="translate(5 15)"/>
</clipPath>
</defs>
</svg>
